<?xml version="1.0" standalone="no"?>
<!DOCTYPE svg PUBLIC "-//W3C//DTD SVG 20010904//EN"
 "http://www.w3.org/TR/2001/REC-SVG-20010904/DTD/svg10.dtd">
<svg version="1.0" xmlns="http://www.w3.org/2000/svg"
 width="74.000000pt" height="76.000000pt" viewBox="0 0 74.000000 76.000000"
 preserveAspectRatio="xMidYMid meet">

<g transform="translate(0.000000,76.000000) scale(0.100000,-0.100000)"
fill="#000000" stroke="none">
<path d="M0 380 l0 -380 370 0 370 0 0 380 0 380 -370 0 -370 0 0 -380z m658
348 c12 -12 17 -100 6 -111 -4 -3 -14 -2 -23 3 -13 7 -42 -21 -146 -141 -119
-136 -132 -148 -157 -143 l-28 6 0 -60 c0 -41 -5 -63 -15 -72 -13 -11 -15 -8
-15 14 0 14 -4 26 -10 26 -5 0 -10 -11 -10 -25 0 -14 -4 -25 -10 -25 -22 0
-30 47 -30 183 0 158 4 171 57 165 26 -3 28 -7 33 -57 3 -30 10 -56 16 -58 12
-4 234 241 234 258 0 5 -5 9 -11 9 -6 0 -9 6 -7 13 3 6 24 15 49 18 24 3 46 7
50 7 3 1 10 -3 17 -10z m-221 -18 c72 -16 83 -25 57 -50 -17 -17 -25 -19 -48
-10 -83 31 -198 0 -272 -74 -90 -90 -110 -211 -53 -324 41 -83 77 -112 202
-161 19 -7 27 -17 25 -29 -5 -25 -37 -26 -101 -2 -74 28 -148 98 -184 175 -37
79 -40 204 -7 276 43 93 131 168 227 194 64 17 93 18 154 5z m241 -187 c23
-50 27 -71 27 -148 0 -78 -4 -97 -28 -146 -47 -97 -155 -178 -240 -182 -32 -2
-42 2 -45 15 -2 12 6 21 25 29 122 48 169 85 207 161 35 71 36 171 2 244 -17
36 -21 56 -14 67 17 31 39 18 66 -40z m-194 -224 c70 -89 78 -134 14 -72 -19
18 -28 22 -28 12 0 -8 5 -20 12 -27 9 -9 7 -12 -10 -12 -14 0 -35 18 -61 52
l-39 52 25 33 c14 18 27 33 29 33 1 0 28 -32 58 -71z"/>
<path d="M550 625 c-7 -9 -10 -18 -7 -22 8 -7 37 15 37 28 0 14 -16 11 -30 -6z"/>
<path d="M492 558 c-7 -7 -12 -19 -12 -27 0 -11 4 -10 20 4 21 19 26 35 12 35
-4 0 -13 -5 -20 -12z"/>
<path d="M244 495 c-4 -9 -2 -21 5 -28 6 -6 11 -28 11 -49 l0 -38 54 0 c46 0
56 3 70 25 18 27 7 35 -14 10 -7 -9 -29 -15 -52 -15 l-40 0 4 52 c2 44 0 53
-15 56 -9 2 -20 -4 -23 -13z"/>
<path d="M430 485 c-7 -9 -10 -18 -7 -22 8 -7 37 15 37 28 0 14 -16 11 -30 -6z"/>
<path d="M260 315 c0 -14 5 -25 10 -25 6 0 10 11 10 25 0 14 -4 25 -10 25 -5
0 -10 -11 -10 -25z"/>
<path d="M410 312 c0 -5 9 -17 20 -27 22 -20 26 -14 10 16 -11 19 -30 26 -30
11z"/>
</g>
</svg>
